# xmcd
#
# Track frame offsets:
#	150
#	16053
#	33495
#	50625
#	66069
#	83055
#	99997
#	114459
#	129705
#	145070
#	159890
#	174615
#
# Disc length: 2537 seconds
#
# Revision: 1
# Processed by: cddbd v1.5.2PL0 Copyright (c) Steve Scherf et al.
# Submitted via: audiograbber 1.83.01
#
DISCID=9409e70c
DTITLE=Kastelruther Spatzen - ...und singen ist Gold
DYEAR=2007
DGENRE=
TTITLE0=Zärtliche Sterne
TTITLE1=Im Tal der verlornen Träume
TTITLE2=Der erste Schritt
TTITLE3=Glaub an dich
TTITLE4=Augen lügen nicht
TTITLE5=Im Brunnen uns'rer Träume
TTITLE6=Reden ist Silber, Singen ist Gold
TTITLE7=Hinter jedem Regenbogen
TTITLE8=Tausend Berge Sehnsucht
TTITLE9=Von Herzen Nein
TTITLE10=Das Lied der Dolomiten
TTITLE11=Ein bisschen Mensch sein
EXTD=
EXTT0=
EXTT1=
EXTT2=
EXTT3=
EXTT4=
EXTT5=
EXTT6=
EXTT7=
EXTT8=
EXTT9=
EXTT10=
EXTT11=
PLAYORDER=
